<mxfile host="app.diagrams.net" modified="2024-06-19T20:38:35.245Z" agent="Mozilla/5.0 (Windows NT 10.0; Win64; x64) AppleWebKit/537.36 (KHTML, like Gecko) Chrome/126.0.0.0 Safari/537.36 Edg/126.0.0.0" etag="4zAXnjoy_9c4tzDHuepZ" version="24.5.5" type="device">
  <diagram id="oNUSkFN7Dylbwa7O4PGP" name="Página-1">
    <mxGraphModel dx="762" dy="611" grid="1" gridSize="10" guides="1" tooltips="1" connect="1" arrows="1" fold="1" page="1" pageScale="1" pageWidth="827" pageHeight="1169" math="0" shadow="0">
      <root>
        <mxCell id="0" />
        <mxCell id="1" parent="0" />
        <mxCell id="nWWfup0uhMJ-vyKWh-1x-3" value="" style="edgeStyle=orthogonalEdgeStyle;rounded=0;orthogonalLoop=1;jettySize=auto;html=1;" parent="1" source="nWWfup0uhMJ-vyKWh-1x-1" target="nWWfup0uhMJ-vyKWh-1x-2" edge="1">
          <mxGeometry relative="1" as="geometry" />
        </mxCell>
        <mxCell id="nWWfup0uhMJ-vyKWh-1x-1" value="inicio" style="strokeWidth=2;html=1;shape=mxgraph.flowchart.start_1;whiteSpace=wrap;" parent="1" vertex="1">
          <mxGeometry x="364" y="30" width="100" height="60" as="geometry" />
        </mxCell>
        <mxCell id="nWWfup0uhMJ-vyKWh-1x-5" value="" style="edgeStyle=orthogonalEdgeStyle;rounded=0;orthogonalLoop=1;jettySize=auto;html=1;" parent="1" source="nWWfup0uhMJ-vyKWh-1x-2" target="nWWfup0uhMJ-vyKWh-1x-4" edge="1">
          <mxGeometry relative="1" as="geometry" />
        </mxCell>
        <mxCell id="nWWfup0uhMJ-vyKWh-1x-2" value="&amp;nbsp; &amp;nbsp; &amp;nbsp;numSorteado = random(1,100),&lt;div&gt;chute=0,&lt;/div&gt;&lt;div&gt;tentativas=0&lt;/div&gt;" style="shape=parallelogram;html=1;strokeWidth=2;perimeter=parallelogramPerimeter;whiteSpace=wrap;rounded=1;arcSize=12;size=0.23;" parent="1" vertex="1">
          <mxGeometry x="304" y="150" width="220" height="110" as="geometry" />
        </mxCell>
        <mxCell id="IkkTuNsLlb1yqxXQUWzn-1" value="" style="edgeStyle=none;curved=1;rounded=0;orthogonalLoop=1;jettySize=auto;html=1;fontSize=12;startSize=8;endSize=8;entryX=0.508;entryY=0.257;entryDx=0;entryDy=0;entryPerimeter=0;" edge="1" parent="1" source="nWWfup0uhMJ-vyKWh-1x-4" target="nWWfup0uhMJ-vyKWh-1x-8">
          <mxGeometry relative="1" as="geometry" />
        </mxCell>
        <mxCell id="nWWfup0uhMJ-vyKWh-1x-4" value="&lt;div&gt;enquanto&lt;/div&gt;(chute&amp;nbsp;&lt;a style=&quot;color: rgb(0, 0, 128); text-decoration-color: rgb(14, 44, 137); text-underline-offset: 3px; border-radius: 2px; cursor: pointer; background: rgb(226, 233, 255); font-family: -apple-system, Roboto, SegoeUI, &amp;quot;Segoe UI&amp;quot;, &amp;quot;Helvetica Neue&amp;quot;, Helvetica, &amp;quot;Microsoft YaHei&amp;quot;, &amp;quot;Meiryo UI&amp;quot;, Meiryo, &amp;quot;Arial Unicode MS&amp;quot;, sans-serif; font-size: 16px; text-align: left; text-decoration-style: dotted !important;&quot; data-tgpsgid=&quot;d_anstgsen0&quot; href=&quot;https://www.bing.com/ck/a?!&amp;amp;&amp;amp;p=f1a5c28b21f390d8JmltdHM9MTcxODc1NTIwMCZpZ3VpZD0wOGVjZmViMi1lMTZjLTY1YjUtMGJjMi1lYTI5ZTBkZDY0MmImaW5zaWQ9NTk0Nw&amp;amp;ptn=3&amp;amp;ver=2&amp;amp;hsh=3&amp;amp;fclid=08ecfeb2-e16c-65b5-0bc2-ea29e0dd642b&amp;amp;psq=simbolo+diferente&amp;amp;u=a1aHR0cHM6Ly93d3cuZnJlZWNvZGVjYW1wLm9yZy9wb3J0dWd1ZXNlL25ld3Mvby1zaW5hbC1kZS1kaWZlcmVudGUtY29tby1mYXplci1vLXNpbWJvbG8tZGUtZGlmZXJlbmNhLw&amp;amp;ntb=1&quot; target=&quot;_blank&quot; data-tg-citations=&quot;1&quot; class=&quot;sh-anchor&quot;&gt;≠&lt;/a&gt;&amp;nbsp;numSorteado)" style="strokeWidth=2;html=1;shape=mxgraph.flowchart.decision;whiteSpace=wrap;" parent="1" vertex="1">
          <mxGeometry x="324" y="320" width="180" height="130" as="geometry" />
        </mxCell>
        <mxCell id="nWWfup0uhMJ-vyKWh-1x-12" value="" style="edgeStyle=orthogonalEdgeStyle;rounded=0;orthogonalLoop=1;jettySize=auto;html=1;" parent="1" source="nWWfup0uhMJ-vyKWh-1x-8" target="nWWfup0uhMJ-vyKWh-1x-10" edge="1">
          <mxGeometry relative="1" as="geometry" />
        </mxCell>
        <mxCell id="nWWfup0uhMJ-vyKWh-1x-25" value="" style="edgeStyle=orthogonalEdgeStyle;rounded=0;orthogonalLoop=1;jettySize=auto;html=1;" parent="1" source="nWWfup0uhMJ-vyKWh-1x-8" target="nWWfup0uhMJ-vyKWh-1x-24" edge="1">
          <mxGeometry relative="1" as="geometry" />
        </mxCell>
        <mxCell id="nWWfup0uhMJ-vyKWh-1x-8" value="&lt;div&gt;&lt;br&gt;&lt;/div&gt;chute" style="html=1;strokeWidth=2;shape=manualInput;whiteSpace=wrap;rounded=1;size=26;arcSize=11;" parent="1" vertex="1">
          <mxGeometry x="363.5" y="555" width="100" height="60" as="geometry" />
        </mxCell>
        <mxCell id="nWWfup0uhMJ-vyKWh-1x-15" value="" style="edgeStyle=orthogonalEdgeStyle;rounded=0;orthogonalLoop=1;jettySize=auto;html=1;" parent="1" source="nWWfup0uhMJ-vyKWh-1x-10" target="nWWfup0uhMJ-vyKWh-1x-14" edge="1">
          <mxGeometry relative="1" as="geometry" />
        </mxCell>
        <mxCell id="nWWfup0uhMJ-vyKWh-1x-27" value="VERDADE" style="edgeLabel;html=1;align=center;verticalAlign=middle;resizable=0;points=[];" parent="nWWfup0uhMJ-vyKWh-1x-15" vertex="1" connectable="0">
          <mxGeometry x="-0.0933" y="-2" relative="1" as="geometry">
            <mxPoint y="-1" as="offset" />
          </mxGeometry>
        </mxCell>
        <mxCell id="nWWfup0uhMJ-vyKWh-1x-10" value="chute==numSorteado" style="strokeWidth=2;html=1;shape=mxgraph.flowchart.decision;whiteSpace=wrap;" parent="1" vertex="1">
          <mxGeometry x="339" y="700" width="150" height="100" as="geometry" />
        </mxCell>
        <mxCell id="nWWfup0uhMJ-vyKWh-1x-39" value="" style="edgeStyle=orthogonalEdgeStyle;rounded=0;orthogonalLoop=1;jettySize=auto;html=1;" parent="1" source="nWWfup0uhMJ-vyKWh-1x-14" target="nWWfup0uhMJ-vyKWh-1x-38" edge="1">
          <mxGeometry relative="1" as="geometry" />
        </mxCell>
        <mxCell id="nWWfup0uhMJ-vyKWh-1x-14" value="&lt;div&gt;&lt;br&gt;&lt;/div&gt;&quot;Parabens! voce acertou o numero sorteado&quot;,&lt;div&gt;&lt;br&gt;&lt;/div&gt;&lt;div&gt;&quot;o numero sorteado foi, numSorteado&lt;/div&gt;" style="strokeWidth=2;html=1;shape=mxgraph.flowchart.display;whiteSpace=wrap;" parent="1" vertex="1">
          <mxGeometry x="320" y="890" width="180" height="110" as="geometry" />
        </mxCell>
        <mxCell id="nWWfup0uhMJ-vyKWh-1x-35" value="" style="edgeStyle=orthogonalEdgeStyle;rounded=0;orthogonalLoop=1;jettySize=auto;html=1;" parent="1" source="nWWfup0uhMJ-vyKWh-1x-24" target="nWWfup0uhMJ-vyKWh-1x-34" edge="1">
          <mxGeometry relative="1" as="geometry" />
        </mxCell>
        <mxCell id="IkkTuNsLlb1yqxXQUWzn-3" value="VERDADE" style="edgeLabel;html=1;align=center;verticalAlign=middle;resizable=0;points=[];fontSize=12;" vertex="1" connectable="0" parent="nWWfup0uhMJ-vyKWh-1x-35">
          <mxGeometry x="-0.18" y="-2" relative="1" as="geometry">
            <mxPoint as="offset" />
          </mxGeometry>
        </mxCell>
        <mxCell id="nWWfup0uhMJ-vyKWh-1x-24" value="chute&amp;gt;numSorteado" style="strokeWidth=2;html=1;shape=mxgraph.flowchart.decision;whiteSpace=wrap;" parent="1" vertex="1">
          <mxGeometry x="610" y="470" width="150" height="100" as="geometry" />
        </mxCell>
        <mxCell id="nWWfup0uhMJ-vyKWh-1x-32" value="" style="edgeStyle=orthogonalEdgeStyle;rounded=0;orthogonalLoop=1;jettySize=auto;html=1;" parent="1" source="nWWfup0uhMJ-vyKWh-1x-29" target="nWWfup0uhMJ-vyKWh-1x-31" edge="1">
          <mxGeometry relative="1" as="geometry" />
        </mxCell>
        <mxCell id="IkkTuNsLlb1yqxXQUWzn-4" value="VERDADE" style="edgeLabel;html=1;align=center;verticalAlign=middle;resizable=0;points=[];fontSize=12;" vertex="1" connectable="0" parent="nWWfup0uhMJ-vyKWh-1x-32">
          <mxGeometry x="-0.3067" relative="1" as="geometry">
            <mxPoint as="offset" />
          </mxGeometry>
        </mxCell>
        <mxCell id="nWWfup0uhMJ-vyKWh-1x-29" value="chute&amp;lt;numSorteado" style="strokeWidth=2;html=1;shape=mxgraph.flowchart.decision;whiteSpace=wrap;" parent="1" vertex="1">
          <mxGeometry x="40" y="485" width="150" height="100" as="geometry" />
        </mxCell>
        <mxCell id="nWWfup0uhMJ-vyKWh-1x-30" style="edgeStyle=orthogonalEdgeStyle;rounded=0;orthogonalLoop=1;jettySize=auto;html=1;exitX=0;exitY=0.75;exitDx=0;exitDy=0;entryX=1;entryY=0.5;entryDx=0;entryDy=0;entryPerimeter=0;" parent="1" source="nWWfup0uhMJ-vyKWh-1x-8" target="nWWfup0uhMJ-vyKWh-1x-29" edge="1">
          <mxGeometry relative="1" as="geometry" />
        </mxCell>
        <mxCell id="nWWfup0uhMJ-vyKWh-1x-36" style="edgeStyle=orthogonalEdgeStyle;rounded=0;orthogonalLoop=1;jettySize=auto;html=1;exitX=1;exitY=0.5;exitDx=0;exitDy=0;exitPerimeter=0;entryX=0.25;entryY=1;entryDx=0;entryDy=0;" parent="1" source="nWWfup0uhMJ-vyKWh-1x-31" target="nWWfup0uhMJ-vyKWh-1x-8" edge="1">
          <mxGeometry relative="1" as="geometry" />
        </mxCell>
        <mxCell id="nWWfup0uhMJ-vyKWh-1x-31" value="O numero sorteado é MAIOR que o chute" style="strokeWidth=2;html=1;shape=mxgraph.flowchart.display;whiteSpace=wrap;" parent="1" vertex="1">
          <mxGeometry x="35" y="630" width="160" height="80" as="geometry" />
        </mxCell>
        <mxCell id="nWWfup0uhMJ-vyKWh-1x-37" style="edgeStyle=orthogonalEdgeStyle;rounded=0;orthogonalLoop=1;jettySize=auto;html=1;exitX=0;exitY=0.5;exitDx=0;exitDy=0;exitPerimeter=0;entryX=0.75;entryY=1;entryDx=0;entryDy=0;" parent="1" source="nWWfup0uhMJ-vyKWh-1x-34" target="nWWfup0uhMJ-vyKWh-1x-8" edge="1">
          <mxGeometry relative="1" as="geometry" />
        </mxCell>
        <mxCell id="nWWfup0uhMJ-vyKWh-1x-34" value="O numero sorteado é MENOR que o chute" style="strokeWidth=2;html=1;shape=mxgraph.flowchart.display;whiteSpace=wrap;" parent="1" vertex="1">
          <mxGeometry x="605" y="630" width="160" height="80" as="geometry" />
        </mxCell>
        <mxCell id="nWWfup0uhMJ-vyKWh-1x-38" value="fim" style="strokeWidth=2;html=1;shape=mxgraph.flowchart.start_1;whiteSpace=wrap;" parent="1" vertex="1">
          <mxGeometry x="360" y="1060" width="100" height="60" as="geometry" />
        </mxCell>
      </root>
    </mxGraphModel>
  </diagram>
</mxfile>
